:SAMPLES-PER-SECOND 30
:FULLY-SPECIFIED
:DEGREES
34
root  -2.16369 40.9624 -0.509851 -14.7673 -88.7837 22.879
RightUpLeg  -5.36255 -0.441663 -1.69775
RightLeg  -3.21983 -22.6922 1.52501
RightFoot  1.57683 -0.235969 2.17965
RightToes  -3.10096e-008 1.75238e-005 3.56266e-009
Spine  4.7664 -2.14767 -10.8271
Spine1  4.38963 -4.59229 10.399
HEad  -19.3322 4.05514 8.82399
LeftShoulder1  2.77724 -5.41749 -24.9603
LeftArm  -35.6024 -5.97388 -40.6684
LeftForeArm  81.7477 -79.5638 -89.2257
LeftHand  0.408064 -5.81423 -3.89893
RightShoulder  2.8745 5.35803 26.424
RightArm  -5.89522 -32.9153 42.9294
RightForeArm  36.143 53.2793 12.1017
RightHand  -0.26872 7.40301 -2.80002
LeftUpLeg  -6.52763 -0.638932 2.38861
LeftLeg  -4.32766 12.6394 -1.23249
LeftFoot  3.30968 0.340019 -2.80066
LeftToes  4.7633e-008 1.48299e-008 1.30754e-009
35
root  -2.55835 40.9586 -0.449131 -20.8373 -88.8208 28.208
RightUpLeg  -4.05837 -0.564504 -1.74888
RightLeg  -2.89028 -22.4774 1.19594
RightFoot  0.923526 -0.246544 2.3254
RightToes  -3.10096e-008 1.75238e-005 3.56266e-009
Spine  3.42488 -2.0373 -11.0593
Spine1  2.79409 -4.34555 11.2611
HEad  -15.7871 3.27116 8.39593
LeftShoulder1  2.74843 -5.07658 -25.9047
LeftArm  -36.0638 -1.65657 -42.0655
LeftForeArm  116.356 -77.583 -123.589
LeftHand  0.416612 -6.34644 -3.77843
RightShoulder  2.7988 5.16191 26.2826
RightArm  -7.36824 -33.6388 43.0472
RightForeArm  35.8605 52.5579 11.7741
RightHand  -0.207424 7.70563 -2.20417
LeftUpLeg  -5.16111 -0.64452 2.12985
LeftLeg  -4.07483 12.641 -1.05808
LeftFoot  2.52277 0.314859 -2.71695
LeftToes  4.7633e-008 1.48299e-008 1.30754e-009
36
root  -2.92505 40.9492 -0.386827 -36.2771 -89.1441 42.7339
RightUpLeg  -2.65119 -0.730648 -1.82327
RightLeg  -2.53898 -21.8214 0.903349
RightFoot  0.272862 -0.250369 2.39597
RightToes  -3.10096e-008 1.75238e-005 3.56266e-009
Spine  1.80318 -1.81159 -10.5375
Spine1  2.52467 -3.84266 10.8848
HEad  -14.2884 2.7804 7.834
LeftShoulder1  2.64331 -4.53427 -26.7777
LeftArm  -35.9671 1.62407 -43.0878
LeftForeArm  132.994 -74.3004 -139.443
LeftHand  0.383946 -7.04354 -3.22187
RightShoulder  2.73487 4.87186 26.6525
RightArm  -8.73684 -33.5567 43.2496
RightForeArm  34.6829 52.0569 11.6327
RightHand  -0.260339 7.17336 -2.74437
LeftUpLeg  -3.51679 -0.386005 1.99465
LeftLeg  -3.99979 12.7579 -1.12888
LeftFoot  1.71782 0.307221 -2.77503
LeftToes  4.7633e-008 1.48299e-008 1.30754e-009
37
root  -3.23024 40.9378 -0.312426 -55.8109 -89.2551 61.3181
RightUpLeg  -1.15993 -1.065 -2.04413
RightLeg  -2.43594 -21.2003 0.818476
RightFoot  -0.297222 -0.26737 2.68952
RightToes  -3.10096e-008 1.75238e-005 3.56266e-009
Spine  -0.0527613 -1.72628 -9.5712
Spine1  3.41216 -3.45485 9.72793
HEad  -14.1175 2.32654 7.58782
LeftShoulder1  2.66126 -4.48557 -27.2148
LeftArm  -36.2731 4.44279 -43.6591
LeftForeArm  139.305 -71.97 -145.791
LeftHand  0.374842 -7.20808 -3.08871
RightShoulder  2.77364 4.88632 27.0751
RightArm  -9.79099 -32.827 43.7927
RightForeArm  33.6746 51.3193 11.3697
RightHand  -0.189854 6.24324 -2.22547
LeftUpLeg  -1.98142 -0.258794 1.7722
LeftLeg  -3.87067 12.8307 -1.10608
LeftFoot  1.018 0.291212 -2.74687
LeftToes  4.7633e-008 1.48299e-008 1.30754e-009
38
root  -3.50724 40.924 -0.264704 -63.1992 -89.216 67.6389
RightUpLeg  0.484557 -1.33551 -2.17721
RightLeg  -2.45129 -20.8271 0.737772
RightFoot  -0.836559 -0.285757 3.01211
RightToes  -3.10096e-008 1.75238e-005 3.56266e-009
Spine  -1.84869 -1.66463 -8.95739
Spine1  4.86277 -3.24621 9.04194
HEad  -14.5333 1.72181 7.70752
LeftShoulder1  2.84855 -4.90414 -27.8119
LeftArm  -36.7428 6.76439 -43.3579
LeftForeArm  140.351 -71.3406 -147.096
LeftHand  0.442333 -7.2922 -3.68277
RightShoulder  2.85636 5.07769 27.3057
RightArm  -10.727 -31.939 44.4131
RightForeArm  34.0288 50.8825 11.1444
RightHand  -0.322408 6.68366 -3.44569
LeftUpLeg  -0.426302 -0.0687673 1.63586
LeftLeg  -3.68167 12.6249 -1.05921
LeftFoot  0.356512 0.275273 -2.70858
LeftToes  4.7633e-008 1.48299e-008 1.30754e-009
39
root  -3.7372 40.9116 -0.221093 -40.5774 -88.8857 43.8668
RightUpLeg  2.20216 -1.51265 -2.26323
RightLeg  -2.4568 -21.0822 0.553142
RightFoot  -1.26423 -0.302414 3.33036
RightToes  -3.10096e-008 1.75238e-005 3.56266e-009
Spine  -3.18483 -1.66335 -7.8664
Spine1  6.2816 -2.98219 7.57643
HEad  -15.5948 0.860129 8.10896
LeftShoulder1  2.92036 -5.08847 -27.9236
LeftArm  -36.4148 7.23348 -43.2369
LeftForeArm  138.06 -72.8678 -143.662
LeftHand  0.362262 -7.34225 -2.93466
RightShoulder  2.98749 5.36671 27.7156
RightArm  -11.109 -31.4171 44.9219
RightForeArm  33.5764 50.635 11.0694
RightHand  -0.325883 7.19082 -3.35673
LeftUpLeg  0.990027 0.134847 1.51045
LeftLeg  -3.32823 11.899 -0.974749
LeftFoot  -0.223541 0.262736 -2.68702
LeftToes  4.7633e-008 1.48299e-008 1.30754e-009
40
root  -3.9077 40.8993 -0.183721 -38.9065 -88.6106 41.1749
RightUpLeg  3.65266 -1.88084 -2.51714
RightLeg  -2.46018 -20.8813 0.548716
RightFoot  -1.62223 -0.302604 3.42771
RightToes  -3.10096e-008 1.75238e-005 3.56266e-009
Spine  -4.32446 -1.53718 -7.45156
Spine1  7.76924 -2.782 7.08052
HEad  -16.5259 0.375995 8.13681
LeftShoulder1  2.94309 -5.10973 -28.1067
LeftArm  -35.9448 6.94452 -42.9432
LeftForeArm  133.433 -74.9467 -137.611
LeftHand  0.355921 -6.70209 -3.05893
RightShoulder  3.00698 5.41052 27.7677
RightArm  -10.3015 -30.7674 45.0581
RightForeArm  33.6976 51.0103 11.2289
RightHand  -0.294653 6.87252 -3.13462
LeftUpLeg  2.22949 0.226402 1.3225
LeftLeg  -3.04317 11.535 -0.872024
LeftFoot  -0.664668 0.253655 -2.67137
LeftToes  4.7633e-008 1.48299e-008 1.30754e-009
41
root  -4.05901 40.8868 -0.151141 -30.9973 -88.1115 32.3829
RightUpLeg  4.89624 -2.20354 -2.7186
RightLeg  -2.32956 -21.0377 0.516251
RightFoot  -1.98462 -0.315375 3.68564
RightToes  -3.10096e-008 1.75238e-005 3.56266e-009
Spine  -5.42305 -1.59248 -6.89995
Spine1  9.30484 -2.70334 6.2804
HEad  -17.0264 -0.0340678 8.13138
LeftShoulder1  3.06442 -5.38627 -28.4193
LeftArm  -35.172 6.51658 -42.1534
LeftForeArm  127.876 -76.3831 -131.696
LeftHand  0.288867 -5.5176 -2.75332
RightShoulder  3.06708 5.56084 27.8744
RightArm  -9.22574 -30.4644 44.8739
RightForeArm  34.1432 51.8816 11.5932
RightHand  -0.328154 7.00992 -3.4194
LeftUpLeg  3.33623 0.282858 1.1694
LeftLeg  -2.93343 10.9363 -0.769263
LeftFoot  -0.94404 0.229586 -2.46195
LeftToes  4.7633e-008 1.48299e-008 1.30754e-009
42
root  -4.18977 40.8731 -0.125256 -24.0458 -87.4633 25.0248
RightUpLeg  5.60799 -2.32994 -2.78342
RightLeg  -2.21766 -21.6048 0.417133
RightFoot  -2.28824 -0.329445 3.96131
RightToes  -3.10096e-008 1.75238e-005 3.56266e-009
Spine  -6.61513 -1.77699 -6.89662
Spine1  10.4352 -2.84029 6.1071
HEad  -17.0017 -0.519092 8.20789
LeftShoulder1  3.1562 -5.6088 -28.5901
LeftArm  -34.293 6.3736 -42.0167
LeftForeArm  127.055 -76.6399 -130.481
LeftHand  0.205489 -5.28895 -1.93213
RightShoulder  3.02585 5.45941 27.794
RightArm  -8.00799 -30.3874 44.6844
RightForeArm  34.8014 52.7725 11.9666
RightHand  -0.278688 6.99184 -2.96322
LeftUpLeg  3.78172 0.345369 1.10536
LeftLeg  -2.64652 10.1583 -0.695561
LeftFoot  -1.28175 0.224034 -2.45812
LeftToes  4.7633e-008 1.48299e-008 1.30754e-009
43
root  -4.29531 40.8607 -0.0976429 -20.6973 -86.9938 21.4335
RightUpLeg  6.1266 -2.33651 -2.77973
RightLeg  -2.23029 -22.0657 0.337961
RightFoot  -2.4667 -0.337217 4.10976
RightToes  -3.10096e-008 1.75238e-005 3.56266e-009
Spine  -7.36742 -1.99872 -6.80702
Spine1  10.8486 -2.9442 5.69329
HEad  -16.8465 0.304788 8.34472
LeftShoulder1  3.17623 -5.67343 -28.5635
LeftArm  -33.2069 7.08524 -42.003
LeftForeArm  134.807 -75.5436 -136.027
LeftHand  0.146922 -5.92248 -1.16946
RightShoulder  3.18449 5.80143 28.2717
RightArm  -7.1672 -30.7086 43.9645
RightForeArm  35.4683 53.5917 12.3187
RightHand  -0.261232 7.14716 -2.77176
LeftUpLeg  4.07302 0.427773 1.09441
LeftLeg  -2.44799 9.5699 -0.673103
LeftFoot  -1.54434 0.214652 -2.39649
LeftToes  4.7633e-008 1.48299e-008 1.30754e-009
44
root  -4.37454 40.8533 -0.0550011 -19.0394 -86.5012 19.6251
RightUpLeg  6.49886 -2.52515 -2.95575
RightLeg  -2.22151 -22.3096 0.402787
RightFoot  -2.6522 -0.341369 4.19686
RightToes  -3.10096e-008 1.75238e-005 3.56266e-009
Spine  -8.41735 -2.15829 -6.61381
Spine1  11.8942 -2.95479 5.09105
HEad  -17.0435 0.314908 8.52412
LeftShoulder1  3.12741 -5.55563 -28.4728
LeftArm  -31.5303 7.5546 -41.9816
LeftForeArm  141.645 -73.6303 -142.594
LeftHand  0.198831 -6.81607 -1.53736
RightShoulder  3.2741 6.00555 28.4853
RightArm  -7.23468 -30.9611 43.9024
RightForeArm  36.5759 54.0774 12.4749
RightHand  -0.257135 6.86795 -2.78268
LeftUpLeg  4.29182 0.422712 0.9881
LeftLeg  -2.40211 9.10051 -0.673025
LeftFoot  -1.66174 0.208846 -2.33869
LeftToes  4.7633e-008 1.48299e-008 1.30754e-009
45
root  -4.42442 40.8455 -0.0259201 -17.1653 -86.0626 17.5864
RightUpLeg  6.79949 -2.57873 -2.98718
RightLeg  -2.14449 -22.7133 0.367896
RightFoot  -2.80603 -0.351774 4.37629
RightToes  -3.10096e-008 1.75238e-005 3.56266e-009
Spine  -8.94693 -2.11405 -6.38691
Spine1  12.4316 -2.81889 4.69371
HEad  -17.2213 -0.450699 8.54057
LeftShoulder1  3.11299 -5.45386 -28.708
LeftArm  -29.6541 6.75512 -41.6334
LeftForeArm  144.619 -72.3934 -145.76
LeftHand  0.246117 -7.58128 -1.8304
RightShoulder  3.16848 5.7563 28.2641
RightArm  -7.70921 -31.3414 44.4213
RightForeArm  36.7981 54.173 12.5061
RightHand  -0.254613 7.11843 -2.71551
LeftUpLeg  4.42505 0.528664 1.01143
LeftLeg  -2.22842 8.52659 -0.707923
LeftFoot  -1.853 0.211516 -2.39773
LeftToes  4.7633e-008 1.48299e-008 1.30754e-009
46
root  -4.4559 40.8406 -0.00306129 -16.1858 -85.5967 16.4628
RightUpLeg  7.12188 -2.6464 -3.0461
RightLeg  -2.23897 -23.1063 0.390774
RightFoot  -2.86053 -0.35582 4.45269
RightToes  -3.10096e-008 1.75238e-005 3.56266e-009
Spine  -9.19 -2.08658 -6.35873
Spine1  12.7152 -2.75479 4.58127
HEad  -17.15 -0.651704 8.33133
LeftShoulder1  3.15173 -5.52579 -28.865
LeftArm  -28.5174 5.25284 -40.9125
LeftForeArm  144.634 -72.2096 -146.107
LeftHand  0.320527 -7.88093 -2.43155
RightShoulder  3.06564 5.54421 27.9235
RightArm  -8.21928 -31.6935 45.0106
RightForeArm  36.3519 53.6752 12.2876
RightHand  -0.274145 7.02967 -2.91277
LeftUpLeg  4.5394 0.536944 0.96143
LeftLeg  -2.14419 8.02913 -0.712171
LeftFoot  -1.9455 0.210969 -2.3944
LeftToes  4.7633e-008 1.48299e-008 1.30754e-009
47
root  -4.45206 40.8372 0.0235438 -14.6806 -85.0643 14.9424
RightUpLeg  7.2413 -2.76542 -3.12808
RightLeg  -2.2932 -23.5199 0.498798
RightFoot  -2.89241 -0.360177 4.53008
RightToes  -3.10096e-008 1.75238e-005 3.56266e-009
Spine  -9.10415 -2.10124 -6.29107
Spine1  12.5456 -2.74664 4.49372
HEad  -17.0327 -0.869605 8.02751
LeftShoulder1  3.10567 -5.42724 -28.7303
LeftArm  -26.9934 3.43877 -40.5976
LeftForeArm  138.199 -72.6605 -144.167
LeftHand  0.373167 -7.22414 -3.05208
RightShoulder  3.06665 5.52897 27.9919
RightArm  -8.38191 -31.9034 44.9469
RightForeArm  35.7566 52.762 11.8844
RightHand  -0.27767 7.37569 -2.88149
LeftUpLeg  4.37551 0.467835 0.890055
LeftLeg  -1.9117 7.59304 -0.637465
LeftFoot  -2.00631 0.206594 -2.32189
LeftToes  4.7633e-008 1.48299e-008 1.30754e-009
48
root  -4.43761 40.8356 0.032226 -14.6298 -84.7023 14.9863
RightUpLeg  7.10081 -2.83023 -3.21733
RightLeg  -2.14598 -23.8095 0.459133
RightFoot  -2.97788 -0.356588 4.48068
RightToes  -3.10096e-008 1.75238e-005 3.56266e-009
Spine  -8.76125 -1.95754 -6.49137
Spine1  11.9312 -2.62329 4.72556
HEad  -16.5206 -1.43821 7.75941
LeftShoulder1  2.99178 -5.18422 -28.3825
LeftArm  -23.4078 2.26695 -39.8413
LeftForeArm  130.462 -72.5962 -143.065
LeftHand  0.302822 -6.19432 -2.69861
RightShoulder  2.98875 5.36602 27.7321
RightArm  -8.09232 -32.0787 44.9235
RightForeArm  35.7909 51.4689 11.2714
RightHand  -0.283647 7.4705 -2.92016
LeftUpLeg  4.23261 0.440989 0.823971
LeftLeg  -1.96371 7.25421 -0.715034
LeftFoot  -1.92229 0.201487 -2.23104
LeftToes  4.7633e-008 1.48299e-008 1.30754e-009
